<svg height="480pt" viewBox="0 0 480 480" width="480pt" xmlns="http://www.w3.org/2000/svg" xmlns:xlink="http://www.w3.org/1999/xlink"><linearGradient id="a"><stop offset="0" stop-color="#fff200"/><stop offset="1" stop-color="#cd118c"/></linearGradient><linearGradient id="b" gradientUnits="userSpaceOnUse" x1="9.904" x2="465.904" xlink:href="#a" y1="482.208" y2="2.208"/><linearGradient id="c" gradientUnits="userSpaceOnUse" x1="11.584" x2="467.584" xlink:href="#a" y1="483.808" y2="3.808"/><path d="m240 0c-132.546875 0-240 107.453125-240 240s107.453125 240 240 240 240-107.453125 240-240c-.148438-132.484375-107.515625-239.851562-240-240zm0 464c-123.710938 0-224-100.289062-224-224s100.289062-224 224-224 224 100.289062 224 224c-.140625 123.652344-100.347656 223.859375-224 224zm0 0" fill="url(#b)"/><path d="m384 120h-96v-24c0-4.417969-3.582031-8-8-8h-80c-4.417969 0-8 3.582031-8 8v24h-96c-4.417969 0-8 3.582031-8 8v48c0 4.417969 3.582031 8 8 8h16v200c0 4.417969 3.582031 8 8 8h240c4.417969 0 8-3.582031 8-8v-200h16c4.417969 0 8-3.582031 8-8v-48c0-4.417969-3.582031-8-8-8zm-176-16h64v16h-64zm144 272h-224v-192h24v144c0 13.253906 10.746094 24 24 24s24-10.746094 24-24v-144h16v152c0 13.253906 10.746094 24 24 24s24-10.746094 24-24v-152h16v144c0 13.253906 10.746094 24 24 24s24-10.746094 24-24v-144h24zm-184-192h16v144c0 4.417969-3.582031 8-8 8s-8-3.582031-8-8zm64 0h16v152c0 4.417969-3.582031 8-8 8s-8-3.582031-8-8zm64 0h16v144c0 4.417969-3.582031 8-8 8s-8-3.582031-8-8zm80-16h-272v-32h272zm0 0" fill="url(#c)"/></svg>