<svg height="375pt" viewBox="0 -7 375.46782 375" width="375pt" xmlns="http://www.w3.org/2000/svg"><path d="m102.402344 314.261719c0 22.621093-18.339844 40.957031-40.960938 40.957031s-40.960937-18.335938-40.960937-40.957031c0-22.621094 18.339843-40.960938 40.960937-40.960938s40.960938 18.339844 40.960938 40.960938zm0 0" fill="#94c1ff" fill-rule="evenodd"/><path d="m61.441406 362.046875c-26.347656 0-47.785156-21.4375-47.785156-47.785156 0-26.351563 21.4375-47.789063 47.785156-47.789063s47.785156 21.4375 47.785156 47.789063c0 26.347656-21.4375 47.785156-47.785156 47.785156zm0-81.917969c-18.820312 0-34.132812 15.3125-34.132812 34.132813 0 18.816406 15.3125 34.132812 34.132812 34.132812 18.820313 0 34.132813-15.316406 34.132813-34.132812 0-18.820313-15.3125-34.132813-34.132813-34.132813zm0 0" fill="#0e65e5"/><path d="m368.640625 293.78125c0 33.933594-27.507813 61.4375-61.441406 61.4375-33.929688 0-61.4375-27.503906-61.4375-61.4375s27.507812-61.441406 61.4375-61.441406c33.933593 0 61.441406 27.507812 61.441406 61.441406zm0 0" fill="#5c9eff"/><path d="m307.199219 362.046875c-37.636719 0-68.265625-30.621094-68.265625-68.265625s30.628906-68.265625 68.265625-68.265625c37.640625 0 68.269531 30.621094 68.269531 68.265625s-30.628906 68.265625-68.269531 68.265625zm0-122.878906c-30.113281 0-54.613281 24.5-54.613281 54.613281s24.5 54.613281 54.613281 54.613281c30.117187 0 54.617187-24.5 54.617187-54.613281s-24.5-54.613281-54.617187-54.613281zm0 0" fill="#0e65e5"/><path d="m271.726562 280.105469c-1.160156 0-2.332031-.296875-3.410156-.914063-3.261718-1.890625-4.382812-6.066406-2.488281-9.332031 8.519531-14.71875 24.375-23.867187 41.371094-23.867187 3.773437 0 6.828125 3.058593 6.828125 6.828124 0 3.769532-3.054688 6.828126-6.828125 6.828126-12.144531 0-23.472657 6.53125-29.558594 17.050781-1.265625 2.1875-3.550781 3.40625-5.914063 3.40625zm0 0" fill="#fff"/><g fill="#0e65e5"><path d="m61.441406 334.742188c-19.078125 0-35.0625-13.066407-39.617187-30.722657-.84375 3.277344-1.34375 6.699219-1.34375 10.242188 0 22.617187 18.339843 40.957031 40.960937 40.957031s40.960938-18.339844 40.960938-40.957031c0-3.542969-.5-6.964844-1.34375-10.242188-4.554688 17.65625-20.539063 30.722657-39.617188 30.722657zm0 0" fill-rule="evenodd"/><path d="m61.441406 362.046875c-26.347656 0-47.785156-21.4375-47.785156-47.785156 0-3.910157.527344-7.929688 1.558594-11.953125.78125-3.011719 3.5-5.117188 6.613281-5.117188s5.832031 2.109375 6.613281 5.121094c3.878906 15.074219 17.445313 25.601562 33 25.601562 15.550782 0 29.117188-10.527343 33-25.601562.78125-3.011719 3.5-5.121094 6.613282-5.121094 3.113281 0 5.832031 2.105469 6.613281 5.117188 1.03125 4.019531 1.558593 8.042968 1.558593 11.953125 0 26.347656-21.4375 47.785156-47.785156 47.785156zm-29.566406-30.742187c5.90625 10.210937 16.945312 17.089843 29.566406 17.089843 12.617188 0 23.660156-6.878906 29.566406-17.089843-8.207031 6.480468-18.53125 10.261718-29.566406 10.261718s-21.359375-3.78125-29.566406-10.261718zm0 0"/><path d="m307.199219 334.742188c-30.433594 0-55.632813-22.15625-60.515625-51.203126-.5625 3.339844-.921875 6.746094-.921875 10.242188 0 33.929688 27.503906 61.4375 61.4375 61.4375 33.9375 0 61.441406-27.507812 61.441406-61.4375 0-3.496094-.359375-6.902344-.921875-10.242188-4.882812 29.046876-30.082031 51.203126-60.519531 51.203126zm0 0"/><path d="m307.199219 362.046875c-37.636719 0-68.265625-30.621094-68.265625-68.265625 0-3.585938.332031-7.304688 1.015625-11.371094.550781-3.285156 3.398437-5.695312 6.730469-5.695312 3.335937 0 6.179687 2.40625 6.734374 5.691406 4.433594 26.371094 27.054688 45.507812 53.785157 45.507812 26.734375 0 49.355469-19.136718 53.789062-45.507812.554688-3.285156 3.398438-5.691406 6.734375-5.691406 3.332032 0 6.179688 2.410156 6.730469 5.695312.683594 4.066406 1.015625 7.785156 1.015625 11.371094 0 37.644531-30.628906 68.265625-68.269531 68.265625zm-45.003907-37.367187c9.855469 14.3125 26.355469 23.714843 45.003907 23.714843 18.652343 0 35.15625-9.402343 45.007812-23.714843-12.058593 10.589843-27.859375 16.886718-45.007812 16.886718-17.144531 0-32.945313-6.296875-45.003907-16.886718zm0 0"/></g><path d="m293.554688 34.273438v148.21875c0 7.515624 6.113281 13.613281 13.652343 13.613281 7.539063 0 13.648438-6.097657 13.648438-13.613281v-175.429688h-273.066407v218.5c0 7.507812 6.109376 13.605469 13.648438 13.605469s13.648438-6.097657 13.648438-13.605469v-191.289062zm0 0" fill="#5c9eff"/><path d="m61.441406 245.992188c-11.292968 0-20.480468-9.164063-20.480468-20.433594v-218.496094c0-3.773438 3.054687-6.828125 6.828124-6.828125h273.066407c3.773437 0 6.824219 3.054687 6.824219 6.828125v175.429688c0 11.269531-9.183594 20.4375-20.480469 20.4375-11.285157 0-20.472657-9.167969-20.472657-20.4375v-141.394532h-204.808593v184.460938c0 11.269531-9.1875 20.433594-20.476563 20.433594zm-6.828125-232.105469v211.671875c0 3.742187 3.0625 6.78125 6.828125 6.78125 3.757813 0 6.820313-3.039063 6.820313-6.78125v-191.289063c0-3.769531 3.050781-6.828125 6.824219-6.828125h218.46875c3.773437 0 6.828124 3.058594 6.828124 6.828125v148.222657c0 3.742187 3.058594 6.785156 6.816407 6.785156 3.769531 0 6.828125-3.042969 6.828125-6.785156v-168.605469zm0 0" fill="#0e65e5"/><path d="m61.441406 252.820312-54.613281-54.613281h109.226563zm0 0" fill="#94c1ff" fill-rule="evenodd"/><path d="m61.441406 259.648438c-1.746094 0-3.492187-.667969-4.828125-2l-54.613281-54.613282c-1.953125-1.957031-2.539062-4.886718-1.476562-7.441406 1.050781-2.550781 3.542968-4.214844 6.304687-4.214844h109.226563c2.757812 0 5.253906 1.664063 6.304687 4.214844 1.0625 2.554688.472656 5.488281-1.476563 7.441406l-54.613281 54.613282c-1.335937 1.332031-3.082031 2-4.828125 2zm-38.132812-54.613282 38.132812 38.132813 38.132813-38.132813zm0 0" fill="#0e65e5"/><path d="m307.199219 211.859375-54.613281-54.613281h109.230468zm0 0" fill="#94c1ff" fill-rule="evenodd"/><path d="m307.199219 218.6875c-1.742188 0-3.492188-.667969-4.824219-2l-54.613281-54.613281c-1.953125-1.953125-2.539063-4.886719-1.480469-7.441407 1.054688-2.546874 3.546875-4.210937 6.304688-4.210937h109.230468c2.757813 0 5.25 1.664063 6.304688 4.210937 1.058594 2.554688.472656 5.488282-1.480469 7.441407l-54.613281 54.613281c-1.332032 1.332031-3.078125 2-4.828125 2zm-38.128907-54.613281 38.128907 38.132812 38.136719-38.132812zm0 0" fill="#0e65e5"/><path d="m163.839844 123.113281c-3.773438 0-6.824219-3.054687-6.824219-6.824219v-27.308593c0-3.769531 3.050781-6.828125 6.824219-6.828125 3.773437 0 6.828125 3.058594 6.828125 6.828125v27.308593c0 3.769532-3.054688 6.824219-6.828125 6.824219zm0 0" fill="#0e65e5"/><path d="m177.496094 109.460938h-27.308594c-3.773438 0-6.828125-3.058594-6.828125-6.828126 0-3.769531 3.054687-6.824218 6.828125-6.824218h27.308594c3.773437 0 6.824218 3.054687 6.824218 6.824218 0 3.769532-3.050781 6.828126-6.824218 6.828126zm0 0" fill="#0e65e5"/></svg>