<?xml version="1.0" encoding="utf-8"?>
<!-- Generator: Adobe Illustrator 21.1.0, SVG Export Plug-In . SVG Version: 6.00 Build 0)  -->
<svg version="1.1" id="Layer_1" xmlns="http://www.w3.org/2000/svg" xmlns:xlink="http://www.w3.org/1999/xlink" x="0px" y="0px"
	 viewBox="0 0 60 60" style="enable-background:new 0 0 60 60;" xml:space="preserve">
<style type="text/css">
	.st0{fill:none;stroke:#00B1FF;stroke-width:2;stroke-miterlimit:10;}
	.st1{fill:#00B1FF;}
</style>
<g>
	<g>
		<path class="st0" d="M52.812,47.898C56.687,42.969,59,36.756,59,30C59,13.984,46.016,1,30,1c-3.903,0-7.624,0.776-11.023,2.174"/>
		<g>
			<polygon class="st1" points="57.294,50.179 47.716,52.952 50.103,43.27 			"/>
		</g>
	</g>
</g>
<g>
	<g>
		<path class="st0" d="M7.188,12.102C3.313,17.031,1,23.244,1,30c0,16.016,12.984,29,29,29c3.903,0,7.624-0.776,11.023-2.174"/>
		<g>
			<polygon class="st1" points="2.706,9.821 12.284,7.048 9.897,16.73 			"/>
		</g>
	</g>
</g>
<g>
	<g>
		<path class="st1" d="M29.984,16.743l8.011,4.625l-7.993,4.597l-7.972-4.6L29.984,16.743 M29.98,14.432l-11.941,6.94L30,28.273
			l12-6.902L29.98,14.432L29.98,14.432z"/>
	</g>
	<g>
		<path class="st1" d="M18.029,28.282l7.972,4.6l0.013,9.219l-8.011-4.625L18.029,28.282 M16.039,24.824L16,38.629l12.02,6.939
			L28,31.726L16.039,24.824L16.039,24.824z"/>
	</g>
	<g>
		<path class="st1" d="M41.99,28.288l-0.026,9.188l-7.95,4.62l-0.013-9.213L41.99,28.288 M44,24.824l-12,6.902l0.02,13.842
			l11.941-6.94L44,24.824L44,24.824z"/>
	</g>
</g>
</svg>
